<?xml version="1.0" standalone="no"?>
<!DOCTYPE svg PUBLIC "-//W3C//DTD SVG 20010904//EN"
 "http://www.w3.org/TR/2001/REC-SVG-20010904/DTD/svg10.dtd">
<svg version="1.0" xmlns="http://www.w3.org/2000/svg"
 width="300.000000pt" height="300.000000pt" viewBox="0 0 300.000000 300.000000"
 preserveAspectRatio="xMidYMid meet">
<metadata>
Created by potrace 1.10, written by Peter Selinger 2001-2011
</metadata>
<g transform="translate(0.000000,300.000000) scale(0.100000,-0.100000)"
fill="#000000" stroke="none">
<path d="M1430 2523 c0 -32 -3 -68 -6 -80 -5 -17 -2 -23 10 -23 12 0 16 10 16
46 0 55 14 84 40 84 11 0 20 7 20 15 0 18 -21 20 -39 3 -11 -10 -14 -10 -18 0
-11 30 -23 7 -23 -45z"/>
<path d="M1259 2551 c-56 -45 -6 -151 64 -137 36 7 59 25 51 38 -4 6 -10 6
-17 -1 -23 -23 -97 -8 -97 20 0 4 29 10 65 14 61 6 65 8 60 28 -16 54 -82 74
-126 38z m86 -17 c21 -21 10 -30 -42 -37 -37 -4 -43 -3 -43 13 0 37 57 52 85
24z"/>
<path d="M1784 2487 c-33 -69 -35 -80 -24 -106 11 -28 61 -61 92 -61 27 0 59
33 88 90 32 63 36 80 20 80 -5 0 -23 -27 -40 -59 -44 -87 -75 -103 -122 -63
-25 21 -23 37 12 111 21 43 27 68 21 74 -7 7 -22 -15 -47 -66z"/>
<path d="M1090 2513 c-14 -10 -33 -16 -43 -15 -15 3 -12 -10 18 -94 19 -53 35
-98 35 -100 0 -2 5 -4 11 -4 11 0 9 28 -6 62 -6 15 -3 17 22 12 43 -8 86 31
85 76 -2 66 -68 101 -122 63z m80 -23 c11 -11 20 -29 20 -40 0 -22 -33 -60
-53 -60 -27 0 -57 31 -57 60 0 18 8 34 22 44 30 21 44 20 68 -4z"/>
<path d="M924 2440 c-28 -11 -54 -48 -54 -78 0 -35 43 -72 83 -72 70 0 103 85
52 135 -25 26 -45 30 -81 15z m70 -42 c20 -29 20 -47 -1 -70 -20 -22 -51 -23
-75 -1 -20 18 -24 63 -6 81 20 20 65 14 82 -10z"/>
<path d="M1600 2420 c0 -11 7 -20 15 -20 8 0 15 9 15 20 0 11 -7 20 -15 20 -8
0 -15 -9 -15 -20z"/>
<path d="M1981 2349 c-44 -57 -59 -84 -50 -89 8 -5 32 19 70 71 33 44 59 84
59 89 0 24 -21 5 -79 -71z"/>
<path d="M756 2402 c-8 -13 -4 -19 73 -115 35 -43 58 -64 64 -58 7 7 -11 36
-49 83 -32 39 -64 79 -70 87 -8 10 -13 11 -18 3z"/>
<path d="M2070 2294 c-63 -35 -119 -65 -124 -67 -5 -2 -7 -8 -3 -14 4 -7 54
15 136 61 71 39 127 74 124 78 -7 12 -11 10 -133 -58z"/>
<path d="M703 2265 c-48 -33 -35 -111 22 -137 33 -15 81 6 101 44 22 42 8 48
-22 10 -16 -20 -34 -32 -50 -32 -32 0 -30 7 16 59 35 41 37 46 22 58 -23 17
-63 16 -89 -2z m71 -13 c3 -5 -12 -26 -33 -46 -32 -31 -39 -35 -45 -21 -9 26
-8 33 14 55 20 20 55 27 64 12z"/>
<path d="M2147 2234 c-32 -26 -60 -57 -63 -71 -12 -48 40 -113 90 -113 11 0
112 68 145 97 3 2 0 8 -5 13 -7 7 -30 -5 -68 -35 -63 -49 -93 -55 -119 -27
-32 35 -21 67 36 114 29 24 54 47 56 53 6 22 -18 12 -72 -31z"/>
<path d="M617 2164 c-3 -4 12 -33 35 -66 l40 -60 -53 8 c-76 10 -88 10 -89 -1
-1 -13 149 -30 161 -18 5 5 -9 35 -36 76 -48 70 -48 71 -58 61z"/>
<path d="M2330 2049 c-35 -69 -33 -68 -97 -53 -32 7 -59 11 -61 9 -10 -10 12
-25 46 -30 66 -11 66 -11 36 -65 -17 -31 -24 -54 -18 -60 6 -6 21 12 39 46
l30 56 40 -7 c22 -3 50 -8 63 -12 17 -4 21 -2 16 10 -3 9 -25 18 -55 22 -27 4
-49 9 -49 12 0 2 11 23 25 46 16 28 21 47 16 56 -7 10 -15 3 -31 -30z"/>
<path d="M517 1972 c-9 -10 -20 -32 -23 -49 -14 -68 85 -112 134 -60 22 24 33
105 12 92 -5 -3 -10 -19 -10 -34 0 -30 -27 -61 -53 -61 -21 0 -22 -1 7 64 13
30 22 57 18 60 -13 13 -70 5 -85 -12z m59 -14 c-2 -7 -10 -30 -17 -50 -14 -43
-23 -47 -39 -19 -14 28 -13 38 10 61 22 22 55 27 46 8z"/>
<path d="M437 1809 c-25 -14 -44 -56 -52 -115 l-7 -52 74 -12 c40 -6 85 -13
99 -16 23 -4 27 -1 33 27 3 17 6 52 6 76 0 60 -40 103 -97 103 -21 0 -46 -5
-56 -11z m88 -23 c39 -17 51 -46 42 -103 -4 -19 -7 -37 -9 -38 -2 -2 -37 2
-78 9 l-75 11 3 35 c5 53 35 89 80 99 1 1 18 -5 37 -13z"/>
<path d="M2350 1763 c-73 -7 -80 -11 -80 -46 0 -90 43 -147 109 -147 73 0 108
53 96 145 l-6 55 -42 -2 c-23 0 -58 -3 -77 -5z m105 -57 c11 -72 -34 -124 -95
-111 -37 8 -56 35 -65 92 l-7 42 44 5 c24 3 57 7 73 9 17 2 33 5 37 6 4 0 10
-19 13 -43z"/>
<path d="M2294 1515 c-19 -20 -24 -34 -22 -62 4 -52 26 -54 24 -2 0 29 5 45
18 55 26 18 36 9 31 -26 -3 -17 -7 -43 -10 -60 -4 -27 -2 -30 24 -30 16 0 37
10 49 23 69 73 -43 173 -114 102z m108 -30 c9 -19 8 -29 -6 -50 -18 -28 -52
-35 -42 -9 3 9 6 31 6 50 0 41 25 47 42 9z"/>
<path d="M538 1479 l-35 -43 -36 28 c-26 20 -37 24 -37 14 0 -8 20 -29 45 -47
52 -37 56 -51 18 -51 -56 0 -103 -13 -103 -27 0 -10 8 -12 33 -8 17 3 66 11
107 18 72 12 98 31 45 33 -13 1 -31 7 -40 14 -14 12 -12 17 22 52 26 26 34 41
27 48 -8 8 -21 -2 -46 -31z"/>
<path d="M2256 1362 c-31 -60 -13 -122 32 -108 10 4 26 22 35 41 21 44 47 47
47 6 0 -17 -4 -33 -10 -36 -13 -8 -13 -35 1 -35 10 0 39 59 39 80 0 18 -39 50
-55 44 -8 -3 -24 -21 -36 -40 -11 -19 -27 -34 -35 -34 -19 0 -18 40 2 69 11
15 13 26 6 33 -7 7 -15 1 -26 -20z"/>
<path d="M580 1335 c0 -3 10 -19 21 -35 21 -27 21 -30 6 -54 -20 -30 -50 -41
-77 -26 -20 11 -23 17 -24 57 -1 34 -21 32 -24 -3 -7 -73 80 -113 133 -59 27
26 31 54 14 88 -15 29 -49 50 -49 32z"/>
<path d="M2205 1230 c-4 -6 23 -23 60 -40 73 -33 85 -35 85 -20 0 6 -30 24
-66 40 -75 34 -71 33 -79 20z"/>
<path d="M2116 1173 c-31 -30 -43 -69 -29 -92 14 -24 144 -111 155 -105 6 4 6
10 -1 17 -7 7 -4 14 12 22 34 17 51 60 37 94 -11 27 -46 51 -75 51 -22 0 -65
-43 -69 -70 -3 -14 -5 -27 -5 -29 -1 -2 -8 2 -16 9 -25 21 -18 65 14 93 17 14
27 28 24 31 -11 11 -20 7 -47 -21z m142 -56 c22 -17 14 -65 -14 -84 -24 -15
-29 -15 -53 -2 -35 20 -38 53 -7 84 25 25 44 25 74 2z"/>
<path d="M608 1160 c-39 -24 -48 -35 -48 -59 0 -32 34 -81 56 -81 19 0 18 5
-11 34 -28 28 -32 48 -11 65 12 10 18 7 30 -18 21 -40 49 -55 76 -41 27 14 26
55 -3 84 -13 13 -21 28 -19 34 6 20 -21 13 -70 -18z m77 -30 c19 -21 14 -50
-9 -50 -17 0 -59 54 -49 64 12 12 40 6 58 -14z"/>
<path d="M736 1062 c-3 -5 1 -15 9 -22 22 -18 19 -25 -25 -60 -39 -31 -42 -32
-60 -15 -18 16 -20 16 -20 2 0 -9 5 -19 10 -22 8 -5 7 -11 0 -20 -17 -21 -2
-39 18 -23 12 10 16 10 19 0 3 -6 9 -10 13 -7 5 3 7 12 4 20 -3 8 11 29 35 50
23 21 41 45 41 55 0 21 -36 55 -44 42z"/>
<path d="M2070 1014 c0 -4 16 -24 35 -45 39 -44 44 -68 17 -92 -27 -24 -38
-22 -86 23 -24 23 -47 36 -50 31 -4 -5 13 -28 36 -50 55 -52 91 -53 126 -1 13
19 25 34 28 33 23 -14 9 7 -36 52 -50 51 -70 65 -70 49z"/>
<path d="M782 948 c-19 -19 -14 -46 15 -99 21 -37 25 -51 16 -60 -18 -18 -62
-1 -82 32 -20 33 -39 23 -21 -10 15 -29 50 -51 80 -51 56 0 65 47 23 111 -24
37 -25 41 -10 56 22 22 60 5 82 -37 8 -16 20 -30 25 -30 20 0 9 30 -24 64 -35
38 -80 48 -104 24z"/>
<path d="M1877 848 c-23 -22 -28 -33 -18 -36 8 -3 18 3 23 12 14 25 55 38 80
25 19 -10 16 -14 -36 -48 l-56 -38 23 -21 c39 -36 89 -25 115 25 18 34 14 52
-17 84 -39 39 -74 38 -114 -3z m112 -70 c-15 -28 -46 -40 -70 -27 -20 10 -19
12 22 40 45 29 68 24 48 -13z"/>
<path d="M901 780 c-34 -51 -61 -94 -61 -96 0 -2 6 -4 13 -4 21 0 131 170 119
182 -7 7 -31 -21 -71 -82z"/>
<path d="M975 740 c-49 -97 -51 -103 -38 -107 10 -4 103 166 103 186 0 31 -24
2 -65 -79z"/>
<path d="M1790 800 c0 -6 7 -27 15 -47 19 -46 19 -62 -2 -85 -9 -10 -13 -21
-9 -26 4 -4 16 3 25 15 13 15 21 19 28 12 25 -25 21 13 -8 75 -28 59 -49 83
-49 56z"/>
<path d="M1058 724 c-24 -64 -25 -75 -11 -72 9 2 23 22 31 46 17 53 44 70 78
47 29 -18 28 -18 8 -79 -22 -63 -4 -85 19 -24 30 83 30 86 2 114 -21 21 -33
25 -56 20 -22 -4 -29 -2 -29 9 0 34 -17 10 -42 -61z"/>
<path d="M1616 742 c-8 -13 11 -35 23 -28 16 10 14 36 -3 36 -8 0 -17 -4 -20
-8z"/>
<path d="M1350 689 l0 -42 -56 7 c-43 5 -55 3 -52 -6 3 -8 25 -14 51 -16 42
-3 47 -6 47 -27 0 -51 -8 -56 -71 -49 -39 4 -59 3 -59 -4 0 -6 26 -14 58 -17
31 -4 64 -9 73 -11 12 -3 18 12 27 85 15 113 15 121 -3 121 -11 0 -15 -11 -15
-41z"/>
</g>
</svg>
